<svg width="60" height="60" xmlns="http://www.w3.org/2000/svg"><path d="M29.75 1.267c-.443.234-.649.439-.866.865-.187.365-.194.582-.165 4.7.03 4.193.037 4.33.245 4.718.409.762.997 1.091 1.843 1.03.749-.054 1.289-.403 1.591-1.027.222-.457.223-.48.182-4.681-.036-3.729-.061-4.268-.214-4.618-.222-.508-.426-.729-.887-.965-.456-.232-1.31-.244-1.729-.022m19.2 7.826c-.165.04-.393.122-.507.183-.397.214-6.047 6.11-6.196 6.467-.647 1.548.957 3.134 2.532 2.504.275-.11 1.214-1.007 3.348-3.198 2.756-2.829 2.977-3.082 3.121-3.576.211-.728.022-1.396-.541-1.905-.541-.489-1.088-.637-1.757-.475m-38.923.171c-.97.478-1.373 1.518-.974 2.513.199.499 5.985 6.165 6.525 6.391.562.235 1.413.139 1.871-.21.734-.56.981-1.315.704-2.149-.147-.443-.478-.8-3.205-3.455-1.83-1.782-3.181-3.02-3.391-3.108-.456-.19-1.124-.182-1.53.018M29.3 15.466c-4.272.238-8.415 2.45-11.015 5.884-2.679 3.538-3.628 8.229-2.539 12.554 1.203 4.773 4.774 8.724 9.354 10.349 1.778.63 3.156.867 5.05.867 2.43 0 4.441-.469 6.631-1.548 6.562-3.231 9.789-10.98 7.466-17.925-1.177-3.516-3.435-6.293-6.671-8.206-2.361-1.395-5.45-2.132-8.276-1.975m3.15 3.587c1.107.228 1.841.491 2.957 1.06 2.972 1.513 5.064 4.184 5.916 7.553.192.759.223 1.139.218 2.684-.005 1.608-.033 1.902-.263 2.755-1.969 7.324-10.078 10.845-16.664 7.238-2.748-1.506-4.842-4.256-5.634-7.399-.324-1.288-.327-3.989-.005-5.265.576-2.284 1.569-4.029 3.193-5.609.927-.902 1.594-1.381 2.725-1.957 1.366-.696 2.566-1.062 4.107-1.252.67-.082 2.655.028 3.45.192M5.142 28.396l-2.907.054-.405.268c-1.355.897-1.133 2.847.39 3.425.385.146.868.155 4.63.085 3.983-.074 4.221-.089 4.6-.287 1.175-.613 1.384-2.264.396-3.131-.625-.549-.365-.533-6.704-.414m46.908-.004c-2.435.049-2.948.085-3.2.223a1.934 1.934 0 0 0 .4 3.58c.293.084 1.508.093 4.55.034 4.111-.081 4.154-.084 4.566-.319 1.299-.74 1.362-2.459.121-3.281-.415-.274-.449-.279-1.979-.287-.857-.005-2.863.017-4.458.05M15.394 42.397c-.423.224-5.999 5.925-6.216 6.356-.241.479-.281.906-.13 1.407a1.905 1.905 0 0 0 1.316 1.298c.555.162.87.125 1.436-.167.35-.18 5.66-5.558 6.08-6.157.283-.404.38-1.099.221-1.58-.157-.476-.658-1.046-1.071-1.219-.455-.19-1.214-.161-1.636.062m28.356-.122c-.538.089-.684.156-1.047.484-.69.623-.854 1.431-.46 2.262.236.497 5.961 6.045 6.483 6.282.561.255 1.035.246 1.572-.028.633-.323 1.019-.851 1.079-1.473.095-.985.004-1.104-3.258-4.279-1.633-1.589-3.082-2.95-3.219-3.024-.296-.159-.869-.271-1.15-.224m-14.049 5.911c-.19.102-.482.353-.648.559l-.303.374v8.831l.237.482c.351.713.865 1.018 1.714 1.018.57 0 .726-.041 1.079-.286.243-.169.501-.468.627-.728.211-.435.213-.512.173-4.664-.036-3.729-.061-4.268-.214-4.618-.096-.218-.251-.482-.345-.586-.502-.556-1.646-.744-2.32-.382" fill-rule="evenodd"/></svg>