<svg width="60" height="60" xmlns="http://www.w3.org/2000/svg"><path d="M38.65 10.936c-.401.183-.451.248-1.709 2.258-.6.959-1.116 1.779-1.146 1.823-.031.045-1.099-.025-2.375-.154-1.275-.13-2.428-.215-2.562-.189-.66.126-.953 1.149-.475 1.657.128.137.866.647 1.64 1.134.774.487 1.453.915 1.508.951.058.038-.261.648-.759 1.45-.794 1.279-1.072 1.807-1.072 2.037 0 .05.138.248.308.44.517.59.656.574 3.288-.387 1.29-.471 2.379-.856 2.419-.856.041 0 .983.572 2.093 1.27 2.295 1.443 2.504 1.509 3.005.948.387-.434.373-.737-.118-2.437-.223-.772-.383-1.426-.355-1.454.028-.028.897-.361 1.93-.739 2.318-.849 2.543-1.048 2.223-1.966-.187-.536-.405-.602-2.762-.828-1.199-.115-2.271-.244-2.382-.288-.16-.064-.32-.496-.8-2.166-.356-1.241-.68-2.178-.799-2.313-.253-.287-.712-.367-1.1-.191m-19.6 1.914c-1.453.883-3.017 2.243-4.426 3.849-1.942 2.213-3.591 5.415-4.371 8.488-.812 3.196-.793 6.796.054 10.063 2.125 8.192 8.649 14.058 17.143 15.413 1.342.214 4.191.241 5.5.051 2.77-.401 5.746-1.428 7.95-2.743 2.522-1.504 5.011-3.864 6.668-6.321 1.345-1.994 2.759-5.247 2.774-6.383.008-.547-.014-.603-.358-.918-.692-.634-1.724-.69-2.165-.118-1.075 1.393-3.971 3.203-6.43 4.017-2.029.671-2.784.786-5.239.794-1.959.007-2.315-.018-3.25-.226-3.544-.791-6.205-2.209-8.555-4.56-2.391-2.392-3.962-5.264-4.652-8.507-.269-1.263-.374-4.081-.2-5.399.29-2.203 1.051-4.644 1.71-5.481.32-.408.357-.882.108-1.396-.314-.649-.621-.894-1.183-.945-.415-.037-.558.006-1.078.322m-2.447 6.715c-.182.957-.242 3.57-.11 4.78.743 6.814 4.8 12.68 10.811 15.635 4 1.966 8.255 2.567 12.446 1.759 1.532-.296 3.787-1.045 4.992-1.66l.392-.201-.382.536c-2.652 3.717-6.517 6.209-11.052 7.125-5.544 1.12-11.443-.641-15.683-4.681-2.693-2.565-4.613-6.373-5.175-10.258-.22-1.526-.149-4.503.142-5.9a18.557 18.557 0 0 1 3.216-7.17c.248-.336.464-.597.482-.58.017.017-.018.294-.079.615" fill-rule="evenodd"/></svg>